<svg id="svg" version="1.1" xmlns="http://www.w3.org/2000/svg" xmlns:xlink="http://www.w3.org/1999/xlink" width="400" height="400" viewBox="0, 0, 400,400"><g id="svgg"><path id="path0" d="M0.000 200.000 L 0.000 400.000 200.000 400.000 L 400.000 400.000 400.000 200.000 L 400.000 0.000 200.000 0.000 L 0.000 0.000 0.000 200.000 M243.800 85.162 C 250.280 87.066,252.593 87.891,255.400 89.299 C 257.160 90.181,259.090 91.285,259.690 91.752 C 263.923 95.047,265.069 96.093,266.966 98.400 C 272.799 105.491,275.887 113.447,276.797 123.728 C 277.030 126.357,277.195 147.194,277.197 174.298 L 277.200 220.395 252.400 220.394 C 232.946 220.393,227.593 220.285,227.568 219.896 C 227.544 219.508,227.494 219.507,227.338 219.891 C 227.185 220.269,222.900 220.384,208.761 220.392 L 190.383 220.402 190.492 212.301 L 190.600 204.200 192.000 204.312 C 193.291 204.416,193.227 204.352,191.190 203.494 C 184.875 200.833,181.353 196.708,177.282 187.200 C 176.969 186.467,176.847 190.774,176.827 203.308 L 176.800 220.415 167.700 220.308 L 158.600 220.200 158.493 209.900 L 158.386 199.600 149.593 199.600 L 140.800 199.600 140.800 210.000 L 140.800 220.400 132.000 220.400 L 123.200 220.400 123.200 191.870 C 123.200 160.461,123.286 159.089,125.670 152.600 C 130.927 138.290,140.353 131.433,154.800 131.410 C 175.848 131.377,186.708 143.107,186.827 166.000 C 186.873 174.878,187.970 182.996,189.776 187.810 C 190.317 189.252,190.362 187.763,190.264 171.800 C 190.189 159.520,190.014 153.837,189.687 153.000 C 189.429 152.340,188.830 150.540,188.356 149.000 C 185.884 140.962,179.247 133.422,171.951 130.365 C 170.768 129.869,169.609 129.321,169.376 129.146 C 165.026 125.887,146.536 126.316,138.891 129.854 C 135.303 131.514,135.608 131.538,134.318 129.500 C 133.304 127.896,132.345 126.509,129.476 122.496 C 128.290 120.836,128.279 120.776,129.029 120.199 C 130.622 118.973,136.025 115.979,138.073 115.187 C 139.243 114.734,140.740 114.117,141.400 113.815 C 147.906 110.840,162.641 111.113,173.784 114.415 C 179.943 116.240,185.288 112.388,190.118 102.645 C 194.646 93.510,200.414 88.371,207.958 86.750 C 209.191 86.485,210.380 86.144,210.600 85.993 C 210.948 85.753,214.342 85.149,218.200 84.639 C 220.956 84.275,242.262 84.710,243.800 85.162 M203.029 108.628 C 200.621 111.037,203.384 115.360,206.352 113.825 C 208.163 112.888,208.686 109.945,207.269 108.662 C 206.342 107.824,203.853 107.804,203.029 108.628 M168.552 154.616 C 167.276 156.564,169.462 158.744,171.563 157.620 C 172.478 157.130,172.671 155.653,171.986 154.374 C 171.362 153.208,169.383 153.348,168.552 154.616 M202.534 202.000 C 202.534 203.650,202.605 204.325,202.691 203.500 C 202.778 202.675,202.778 201.325,202.691 200.500 C 202.605 199.675,202.534 200.350,202.534 202.000 M94.303 250.700 L 94.200 275.000 93.000 275.000 L 91.800 275.000 91.697 250.700 L 91.594 226.400 93.000 226.400 L 94.406 226.400 94.303 250.700 M98.600 250.800 L 98.600 275.000 97.300 275.125 L 96.000 275.251 96.000 250.800 L 96.000 226.349 97.300 226.475 L 98.600 226.600 98.600 250.800 M102.703 250.700 L 102.600 275.000 101.500 275.127 L 100.400 275.253 100.400 250.827 L 100.400 226.400 101.603 226.400 L 102.806 226.400 102.703 250.700 M130.000 227.357 C 130.000 228.764,129.697 228.800,117.967 228.800 C 107.495 228.800,107.200 228.822,107.200 229.594 C 107.200 230.364,107.532 230.391,118.500 230.494 L 129.800 230.600 129.800 231.600 L 129.800 232.600 118.500 232.706 C 107.562 232.809,107.200 232.838,107.200 233.600 C 107.200 234.362,107.562 234.391,118.500 234.494 L 129.800 234.600 129.800 235.800 L 129.800 237.000 118.500 237.106 L 107.200 237.212 107.200 240.995 L 107.200 244.778 112.900 244.889 L 118.600 245.000 118.725 246.300 L 118.851 247.600 113.025 247.600 C 107.467 247.600,107.200 247.637,107.200 248.400 C 107.200 249.163,107.467 249.200,113.000 249.200 L 118.800 249.200 118.800 250.400 L 118.800 251.600 113.000 251.600 C 107.467 251.600,107.200 251.637,107.200 252.400 C 107.200 253.159,107.467 253.200,112.367 253.200 C 118.419 253.200,118.800 253.297,118.800 254.843 L 118.800 256.000 113.000 256.000 L 107.200 256.000 107.200 259.994 L 107.200 263.988 118.500 264.094 L 129.800 264.200 129.800 265.400 L 129.800 266.600 118.500 266.706 C 107.532 266.809,107.200 266.836,107.200 267.606 C 107.200 268.379,107.496 268.400,118.600 268.400 L 130.000 268.400 130.000 269.600 L 130.000 270.800 118.600 270.800 C 107.496 270.800,107.200 270.821,107.200 271.594 C 107.200 272.364,107.532 272.391,118.500 272.494 L 129.800 272.600 129.800 273.800 L 129.800 275.000 117.200 275.000 L 104.600 275.000 104.497 250.700 L 104.394 226.400 117.197 226.400 L 130.000 226.400 130.000 227.357 M161.600 253.800 L 161.600 275.200 160.400 275.200 L 159.200 275.200 159.200 253.800 L 159.200 232.400 160.400 232.400 L 161.600 232.400 161.600 253.800 M165.904 253.700 L 165.800 275.000 164.600 275.000 L 163.400 275.000 163.296 253.700 L 163.193 232.400 164.600 232.400 L 166.007 232.400 165.904 253.700 M170.200 253.800 L 170.200 275.000 169.000 275.000 L 167.800 275.000 167.696 253.674 L 167.593 232.349 168.896 232.474 L 170.200 232.600 170.200 253.800 M174.705 248.300 L 174.809 264.000 182.381 264.000 C 190.344 264.000,190.669 264.075,190.230 265.823 L 189.985 266.800 182.392 266.800 C 175.067 266.800,174.800 266.828,174.800 267.600 C 174.800 268.373,175.067 268.400,182.627 268.400 L 190.453 268.400 190.327 269.500 L 190.200 270.600 182.500 270.709 C 175.160 270.812,174.800 270.854,174.800 271.600 C 174.800 272.346,175.160 272.388,182.500 272.491 L 190.200 272.600 190.200 273.800 L 190.200 275.000 181.100 275.108 L 172.000 275.215 172.000 253.782 L 172.000 232.349 173.300 232.475 L 174.600 232.600 174.705 248.300 M221.504 253.700 L 221.400 275.000 220.300 275.127 L 219.200 275.253 219.200 253.827 L 219.200 232.400 220.404 232.400 L 221.607 232.400 221.504 253.700 M225.904 253.700 L 225.800 275.000 224.700 275.127 L 223.600 275.253 223.600 253.827 L 223.600 232.400 224.804 232.400 L 226.007 232.400 225.904 253.700 M230.200 253.800 L 230.200 275.000 229.000 275.000 L 227.800 275.000 227.696 253.674 L 227.593 232.349 228.896 232.474 L 230.200 232.600 230.200 253.800 M234.400 248.192 L 234.400 263.983 242.300 264.092 L 250.200 264.200 250.200 265.400 L 250.200 266.600 242.300 266.708 C 234.731 266.812,234.400 266.850,234.400 267.608 C 234.400 268.371,234.695 268.400,242.400 268.400 L 250.400 268.400 250.400 269.600 L 250.400 270.800 242.400 270.800 C 234.667 270.800,234.400 270.827,234.400 271.600 C 234.400 272.373,234.667 272.400,242.425 272.400 L 250.451 272.400 250.325 273.700 L 250.200 275.000 241.100 275.108 L 232.000 275.215 232.000 253.808 L 232.000 232.400 233.200 232.400 L 234.400 232.400 234.400 248.192 M283.472 239.500 C 289.924 252.127,292.461 256.994,292.745 257.292 C 292.898 257.452,293.906 255.742,294.985 253.492 C 296.063 251.241,298.447 246.250,300.282 242.400 C 304.968 232.567,304.934 232.622,306.366 232.475 L 307.582 232.351 307.023 233.875 C 306.716 234.714,305.661 237.020,304.679 239.000 C 303.698 240.980,301.955 244.580,300.806 247.000 C 299.657 249.420,297.791 253.290,296.659 255.600 L 294.600 259.800 294.400 267.400 L 294.200 275.000 293.000 275.000 L 291.800 275.000 291.600 267.400 C 291.420 260.555,291.315 259.661,290.548 258.400 C 290.079 257.630,287.492 252.680,284.798 247.400 C 282.104 242.120,279.382 236.865,278.750 235.722 C 277.280 233.065,277.275 232.400,278.722 232.400 C 279.773 232.400,280.074 232.850,283.472 239.500 M284.858 233.700 C 285.201 234.415,285.982 235.900,286.592 237.000 C 287.203 238.100,288.687 240.890,289.891 243.200 C 291.094 245.510,292.714 248.587,293.490 250.037 C 294.876 252.629,294.888 252.693,294.200 253.744 C 293.352 255.038,292.845 254.736,291.777 252.302 C 291.366 251.366,290.014 248.710,288.773 246.400 C 285.676 240.636,281.600 232.778,281.600 232.571 C 281.600 231.631,284.316 232.573,284.858 233.700 M291.682 238.200 C 296.932 247.684,296.913 247.638,296.262 249.188 L 295.700 250.524 295.091 249.562 C 294.493 248.617,291.483 243.120,288.322 237.200 C 287.441 235.550,286.558 234.029,286.360 233.820 C 285.560 232.975,285.993 232.349,287.291 232.475 C 288.503 232.592,288.771 232.942,291.682 238.200 M294.423 235.300 C 295.365 236.895,296.653 239.006,297.284 239.992 C 298.727 242.247,299.020 243.400,298.459 244.629 C 297.802 246.073,297.558 245.885,295.689 242.500 C 294.748 240.795,293.175 237.960,292.194 236.200 C 290.079 232.406,290.078 232.400,291.554 232.400 C 292.562 232.400,292.925 232.766,294.423 235.300 M311.667 233.100 C 310.815 235.038,309.468 237.901,307.102 242.800 C 305.669 245.770,303.124 251.044,301.448 254.519 L 298.400 260.838 298.400 268.044 L 298.400 275.251 297.100 275.125 L 295.800 275.000 295.690 268.084 L 295.581 261.169 297.433 257.284 C 298.452 255.148,300.673 250.520,302.369 247.000 C 304.065 243.480,306.338 238.755,307.419 236.500 C 309.313 232.549,309.432 232.400,310.679 232.400 C 311.763 232.400,311.924 232.514,311.667 233.100 M316.000 232.801 C 316.000 233.186,314.925 235.462,307.308 251.200 C 305.444 255.050,303.714 258.650,303.463 259.200 C 303.201 259.773,302.919 263.358,302.803 267.600 L 302.600 275.000 301.400 275.000 L 300.200 275.000 300.091 267.846 L 299.981 260.692 302.351 255.846 C 303.655 253.181,305.927 248.480,307.402 245.400 C 313.937 231.747,313.564 232.400,314.840 232.400 C 315.478 232.400,316.000 232.581,316.000 232.801 M320.400 232.686 C 320.400 232.843,319.696 234.418,318.835 236.186 C 317.975 237.954,315.710 242.640,313.803 246.600 C 311.895 250.560,309.633 255.240,308.776 257.000 L 307.217 260.200 307.108 267.600 L 307.000 275.000 305.800 275.000 L 304.600 275.000 304.491 267.764 L 304.382 260.528 306.020 257.164 C 311.779 245.335,317.200 233.926,317.200 233.634 C 317.200 233.483,317.416 233.144,317.680 232.880 C 318.194 232.366,320.400 232.209,320.400 232.686 " stroke="none" fill="#dbbbb3" fill-rule="evenodd"></path><path id="path1" d="M216.402 85.407 C 202.441 87.270,196.496 91.224,190.769 102.459 C 186.453 110.924,181.929 115.200,177.285 115.200 C 176.368 115.200,170.111 114.034,162.269 112.402 C 159.668 111.860,150.870 111.891,148.506 112.451 C 140.658 114.306,136.187 116.113,130.503 119.727 L 128.806 120.806 130.768 123.555 C 131.846 125.066,133.188 127.000,133.749 127.852 C 135.741 130.873,135.819 130.934,136.867 130.275 C 140.493 127.993,147.889 126.340,154.400 126.358 C 174.105 126.410,187.017 136.710,190.224 154.935 C 190.879 158.654,191.084 190.868,190.449 190.180 C 188.616 188.193,186.507 176.362,186.389 167.400 C 186.108 146.078,179.588 136.444,162.600 132.245 C 145.926 128.123,129.760 137.988,125.355 154.973 C 123.498 162.130,123.502 162.067,123.320 191.700 L 123.147 220.000 131.767 220.000 L 140.387 220.000 140.493 209.500 L 140.600 199.000 149.600 199.000 L 158.600 199.000 158.707 209.500 L 158.813 220.000 167.602 220.000 L 176.391 220.000 176.496 202.900 C 176.607 184.626,176.694 183.982,178.414 188.600 C 182.179 198.703,190.163 204.800,199.629 204.800 C 199.833 204.800,200.000 204.980,200.000 205.200 C 200.000 205.775,196.199 205.681,193.470 205.039 C 190.567 204.356,190.756 203.803,190.890 212.613 L 191.000 219.800 203.500 219.906 L 216.000 220.011 215.987 208.706 C 215.976 198.672,215.909 197.490,215.388 198.200 C 212.784 201.751,207.948 204.768,204.300 205.119 L 202.400 205.302 202.400 202.090 L 202.400 198.879 203.744 198.086 C 207.145 196.079,209.078 191.078,209.647 182.820 C 210.751 166.769,215.308 162.000,229.542 162.000 C 239.929 162.000,246.317 166.463,249.580 176.000 C 250.944 179.989,251.185 183.978,251.193 202.700 L 251.200 220.000 264.012 220.000 L 276.824 220.000 276.704 170.900 L 276.583 121.800 275.672 118.000 C 271.927 102.390,264.488 93.190,251.400 87.985 C 244.109 85.085,227.817 83.885,216.402 85.407 M239.743 101.432 C 251.051 103.293,255.593 109.411,255.676 122.895 C 255.758 136.282,244.487 146.325,227.700 147.822 L 224.800 148.081 224.800 124.507 C 224.800 111.542,224.935 100.798,225.100 100.633 C 225.533 100.199,235.582 100.747,239.743 101.432 M207.700 108.821 C 209.127 110.367,209.105 111.757,207.631 113.231 C 204.492 116.369,199.704 112.485,202.243 108.860 C 203.622 106.891,205.904 106.874,207.700 108.821 M159.600 164.056 L 159.600 178.912 157.430 178.688 C 147.341 177.647,139.066 164.997,142.534 155.918 C 144.132 151.732,149.238 149.394,157.100 149.247 L 159.600 149.200 159.600 164.056 M171.911 153.823 C 173.722 155.091,172.654 158.407,170.438 158.394 C 169.166 158.386,168.662 158.069,168.038 156.885 C 166.756 154.452,169.600 152.204,171.911 153.823 M226.400 182.733 C 226.400 192.325,226.159 191.577,229.105 191.125 C 234.272 190.331,237.600 186.847,237.600 182.232 C 237.600 176.577,235.295 174.458,229.100 174.418 L 226.400 174.400 226.400 182.733 M217.062 177.931 C 216.232 178.849,216.226 179.573,217.039 180.734 C 218.489 182.804,222.038 180.338,220.652 178.223 C 219.844 176.990,218.046 176.844,217.062 177.931 M228.000 213.400 L 228.000 220.000 233.600 220.000 L 239.200 220.000 239.200 213.400 L 239.200 206.800 233.600 206.800 L 228.000 206.800 228.000 213.400 M92.000 250.600 C 92.000 274.533,92.009 274.800,92.800 274.800 C 93.591 274.800,93.600 274.533,93.600 250.600 C 93.600 226.667,93.591 226.400,92.800 226.400 C 92.009 226.400,92.000 226.667,92.000 250.600 M96.400 250.600 C 96.400 274.533,96.409 274.800,97.200 274.800 C 97.991 274.800,98.000 274.533,98.000 250.600 C 98.000 226.667,97.991 226.400,97.200 226.400 C 96.409 226.400,96.400 226.667,96.400 250.600 M100.400 250.572 L 100.400 274.800 101.403 274.800 L 102.406 274.800 102.303 250.700 L 102.200 226.600 101.300 226.472 L 100.400 226.344 100.400 250.572 M104.800 250.600 L 104.800 274.800 117.000 274.800 L 129.200 274.800 129.200 273.800 L 129.200 272.800 118.000 272.800 L 106.800 272.800 106.800 271.600 L 106.800 270.400 118.000 270.400 C 128.904 270.400,129.200 270.379,129.200 269.606 C 129.200 268.836,128.868 268.809,118.100 268.706 L 107.000 268.600 107.000 267.400 L 107.000 266.200 118.100 266.094 C 128.868 265.991,129.200 265.964,129.200 265.194 C 129.200 264.421,128.904 264.400,118.000 264.400 L 106.800 264.400 106.800 260.000 L 106.800 255.600 112.600 255.600 C 118.133 255.600,118.400 255.563,118.400 254.800 C 118.400 254.037,118.133 254.000,112.600 254.000 L 106.800 254.000 106.800 252.800 L 106.800 251.600 112.600 251.600 L 118.400 251.600 118.400 250.600 L 118.400 249.600 112.600 249.600 L 106.800 249.600 106.800 248.400 L 106.800 247.200 112.600 247.200 C 118.106 247.200,118.400 247.160,118.400 246.411 C 118.400 245.668,118.069 245.616,112.700 245.511 L 107.000 245.400 106.886 241.100 L 106.773 236.800 117.986 236.800 L 129.200 236.800 129.200 235.800 L 129.200 234.800 118.000 234.800 L 106.800 234.800 106.800 233.600 L 106.800 232.400 118.000 232.400 C 128.933 232.400,129.200 232.381,129.200 231.600 C 129.200 230.819,128.933 230.800,117.975 230.800 L 106.749 230.800 106.875 229.500 L 107.000 228.200 118.100 228.094 C 128.868 227.991,129.200 227.964,129.200 227.194 C 129.200 226.419,128.901 226.400,117.000 226.400 L 104.800 226.400 104.800 250.600 M159.600 253.800 C 159.600 274.533,159.610 274.800,160.400 274.800 C 161.190 274.800,161.200 274.533,161.200 253.800 C 161.200 233.067,161.190 232.800,160.400 232.800 C 159.610 232.800,159.600 233.067,159.600 253.800 M164.000 253.800 C 164.000 274.533,164.010 274.800,164.800 274.800 C 165.590 274.800,165.600 274.533,165.600 253.800 C 165.600 233.067,165.590 232.800,164.800 232.800 C 164.010 232.800,164.000 233.067,164.000 253.800 M168.000 253.772 L 168.000 274.800 169.004 274.800 L 170.007 274.800 169.904 253.900 L 169.800 233.000 168.900 232.872 L 168.000 232.744 168.000 253.772 M172.400 253.800 L 172.400 274.800 181.200 274.800 L 190.000 274.800 190.000 273.800 L 190.000 272.800 181.973 272.800 L 173.947 272.800 174.073 271.700 L 174.200 270.600 182.100 270.492 C 189.669 270.388,190.000 270.350,190.000 269.592 C 190.000 268.831,189.705 268.800,182.500 268.794 C 174.530 268.787,173.853 268.656,174.065 267.155 L 174.200 266.200 182.100 266.092 C 189.669 265.988,190.000 265.950,190.000 265.192 C 190.000 264.429,189.705 264.400,182.000 264.400 L 174.000 264.400 174.000 248.600 C 174.000 233.067,173.986 232.800,173.200 232.800 C 172.410 232.800,172.400 233.067,172.400 253.800 M219.600 253.800 C 219.600 274.533,219.610 274.800,220.400 274.800 C 221.190 274.800,221.200 274.533,221.200 253.800 C 221.200 233.067,221.190 232.800,220.400 232.800 C 219.610 232.800,219.600 233.067,219.600 253.800 M223.880 233.053 C 223.726 233.207,223.600 242.663,223.600 254.067 L 223.600 274.800 224.604 274.800 L 225.607 274.800 225.504 253.905 C 225.397 232.345,225.338 231.595,223.880 233.053 M228.000 253.772 C 228.000 274.272,228.019 274.800,228.771 274.800 C 229.956 274.800,230.065 272.643,229.925 251.800 L 229.800 233.000 228.900 232.872 L 228.000 232.744 228.000 253.772 M232.400 253.800 L 232.400 274.800 241.000 274.800 C 246.427 274.800,249.622 274.652,249.660 274.400 C 249.693 274.180,249.738 273.775,249.760 273.500 C 249.790 273.122,247.897 272.951,242.000 272.800 L 234.200 272.600 234.200 271.600 L 234.200 270.600 242.000 270.400 C 248.578 270.231,249.800 270.106,249.800 269.600 C 249.800 269.094,248.578 268.969,242.000 268.800 L 234.200 268.600 234.200 267.400 L 234.200 266.200 242.000 266.000 C 248.579 265.831,249.801 265.706,249.800 265.200 C 249.800 264.694,248.577 264.569,242.000 264.400 L 234.200 264.200 234.095 248.500 C 233.993 233.132,233.974 232.800,233.195 232.800 C 232.412 232.800,232.400 233.108,232.400 253.800 M278.000 232.982 C 278.000 233.112,279.690 236.499,281.756 240.509 C 283.821 244.519,286.971 250.649,288.756 254.132 L 292.000 260.464 292.000 267.632 L 292.000 274.800 292.976 274.800 L 293.952 274.800 294.080 267.100 L 294.207 259.400 297.458 252.800 C 306.732 233.978,307.242 232.798,306.100 232.803 C 305.372 232.807,305.248 233.041,298.192 247.800 C 293.610 257.383,293.085 258.376,292.722 258.152 C 292.552 258.047,291.343 255.854,290.036 253.280 C 280.657 234.810,279.662 232.999,278.835 232.872 C 278.376 232.802,278.000 232.851,278.000 232.982 M282.400 233.172 C 282.400 233.377,284.200 236.873,286.400 240.941 C 288.600 245.009,290.400 248.431,290.400 248.544 C 290.400 248.657,291.110 250.059,291.978 251.659 C 293.526 254.512,293.564 254.547,293.966 253.490 C 294.494 252.100,284.377 232.800,283.119 232.800 C 282.724 232.800,282.400 232.967,282.400 233.172 M286.809 233.300 C 286.828 234.284,295.116 249.000,295.652 249.000 C 296.795 249.000,296.079 247.154,292.200 240.097 C 288.523 233.408,286.770 231.198,286.809 233.300 M292.245 235.500 C 293.584 237.936,295.594 241.427,297.101 243.934 C 298.550 246.342,298.782 243.642,297.342 241.135 C 296.604 239.851,295.354 237.675,294.566 236.300 C 292.735 233.111,292.466 232.800,291.531 232.800 C 290.841 232.800,290.915 233.081,292.245 235.500 M308.111 236.100 C 306.467 239.385,302.933 246.716,298.649 255.732 L 296.400 260.464 296.400 267.632 C 296.400 274.533,296.430 274.800,297.200 274.800 C 297.970 274.800,298.000 274.533,298.000 267.777 L 298.000 260.754 299.755 257.077 C 300.720 255.055,302.808 250.700,304.395 247.400 C 312.310 230.944,311.536 232.800,310.481 232.800 C 309.981 232.800,309.260 233.804,308.111 236.100 M313.680 233.280 C 313.416 233.544,313.200 233.902,313.200 234.075 C 313.200 234.249,311.958 236.958,310.440 240.095 C 308.922 243.233,306.132 249.016,304.240 252.946 L 300.800 260.092 300.800 267.446 C 300.800 274.533,300.829 274.800,301.600 274.800 C 302.370 274.800,302.400 274.533,302.400 267.605 L 302.400 260.409 305.151 254.705 C 306.664 251.567,309.118 246.480,310.604 243.400 C 312.090 240.320,313.771 236.810,314.341 235.600 C 314.910 234.390,315.441 233.265,315.521 233.100 C 315.760 232.608,314.200 232.760,313.680 233.280 M316.608 236.100 C 314.881 239.761,308.797 252.421,306.365 257.414 L 304.800 260.628 304.800 267.714 C 304.800 274.533,304.830 274.800,305.600 274.800 C 306.368 274.800,306.400 274.533,306.400 268.050 C 306.400 260.385,306.042 261.666,311.127 251.145 C 312.654 247.985,315.185 242.748,316.752 239.507 C 319.852 233.093,319.945 232.800,318.882 232.800 C 318.376 232.800,317.707 233.772,316.608 236.100 " stroke="none" fill="#75554d" fill-rule="evenodd"></path><path id="path2" d="M225.800 162.491 C 215.141 164.155,210.413 169.770,210.403 180.776 C 210.395 188.844,207.954 195.896,204.340 198.287 L 202.800 199.306 202.800 202.078 L 202.800 204.849 204.598 204.579 C 207.389 204.161,211.247 201.888,213.743 199.192 C 214.961 197.877,216.055 196.800,216.173 196.800 C 216.291 196.800,216.435 201.975,216.494 208.300 L 216.600 219.800 221.890 219.912 L 227.181 220.023 227.290 213.312 L 227.400 206.600 233.500 206.490 L 239.600 206.379 239.600 213.190 L 239.600 220.000 245.000 220.000 L 250.400 220.000 250.386 201.100 C 250.370 179.746,250.192 177.801,247.825 173.141 C 244.625 166.843,241.174 164.337,233.094 162.446 C 230.936 161.941,229.256 161.951,225.800 162.491 M233.834 174.444 C 242.523 177.082,237.785 191.726,228.222 191.787 L 226.200 191.800 226.092 183.210 C 226.032 178.485,226.075 174.383,226.186 174.093 C 226.410 173.508,231.525 173.743,233.834 174.444 M220.568 177.246 C 222.846 179.038,220.774 182.567,217.924 181.750 C 217.059 181.502,216.486 181.020,216.247 180.343 C 215.197 177.356,218.081 175.290,220.568 177.246 " stroke="none" fill="#f3f3f3" fill-rule="evenodd"></path><path id="path3" d="M225.297 124.085 L 225.400 147.400 227.800 147.269 C 243.524 146.409,254.799 136.666,255.141 123.642 C 255.575 107.094,250.009 101.986,230.497 101.030 L 225.194 100.770 225.297 124.085 M152.219 150.045 C 144.757 151.132,142.200 153.870,142.200 160.770 C 142.200 169.308,149.275 177.442,157.700 178.590 L 159.600 178.849 159.600 164.225 L 159.600 149.600 157.100 149.649 C 155.725 149.676,153.529 149.854,152.219 150.045 " stroke="none" fill="#c49281" fill-rule="evenodd"></path><path id="path4" d="M230.700 101.093 C 231.635 101.177,233.165 101.177,234.100 101.093 C 235.035 101.009,234.270 100.940,232.400 100.940 C 230.530 100.940,229.765 101.009,230.700 101.093 M154.307 111.890 C 155.026 111.979,156.106 111.977,156.707 111.886 C 157.308 111.795,156.720 111.722,155.400 111.724 C 154.080 111.726,153.588 111.801,154.307 111.890 M276.993 174.200 C 276.993 199.500,277.041 209.791,277.100 197.069 C 277.159 184.347,277.159 163.647,277.100 151.069 C 277.041 138.491,276.993 148.900,276.993 174.200 M190.582 174.400 C 190.582 183.090,190.635 186.645,190.700 182.300 C 190.764 177.955,190.764 170.845,190.700 166.500 C 190.635 162.155,190.582 165.710,190.582 174.400 M186.509 167.200 C 186.509 168.190,186.587 168.595,186.682 168.100 C 186.778 167.605,186.778 166.795,186.682 166.300 C 186.587 165.805,186.509 166.210,186.509 167.200 M184.200 198.800 C 185.059 199.680,185.852 200.400,185.962 200.400 C 186.072 200.400,185.459 199.680,184.600 198.800 C 183.741 197.920,182.948 197.200,182.838 197.200 C 182.728 197.200,183.341 197.920,184.200 198.800 M140.574 209.800 C 140.575 215.520,140.631 217.804,140.699 214.876 C 140.768 211.948,140.767 207.268,140.699 204.476 C 140.630 201.684,140.574 204.080,140.574 209.800 M190.567 212.200 C 190.567 216.380,190.626 218.036,190.698 215.879 C 190.771 213.723,190.770 210.303,190.698 208.279 C 190.625 206.256,190.566 208.020,190.567 212.200 M102.588 250.600 C 102.588 264.020,102.638 269.452,102.700 262.671 C 102.761 255.890,102.761 244.910,102.700 238.271 C 102.638 231.632,102.588 237.180,102.588 250.600 M104.588 250.600 C 104.588 264.020,104.638 269.452,104.700 262.671 C 104.761 255.890,104.761 244.910,104.700 238.271 C 104.638 231.632,104.588 237.180,104.588 250.600 M112.724 232.699 C 115.873 232.767,120.913 232.767,123.924 232.699 C 126.936 232.631,124.360 232.576,118.200 232.576 C 112.040 232.576,109.576 232.632,112.724 232.699 M225.600 253.720 L 225.800 275.000 225.903 254.024 C 225.961 242.487,225.871 232.911,225.704 232.743 C 225.537 232.576,225.490 242.016,225.600 253.720 M165.786 253.800 C 165.786 265.460,165.837 270.172,165.900 264.272 C 165.962 258.371,165.962 248.831,165.900 243.072 C 165.837 237.312,165.786 242.140,165.786 253.800 M221.386 253.800 C 221.386 265.460,221.437 270.172,221.500 264.272 C 221.562 258.371,221.562 248.831,221.500 243.072 C 221.437 237.312,221.386 242.140,221.386 253.800 M167.786 254.000 C 167.786 265.550,167.837 270.275,167.900 264.500 C 167.962 258.725,167.962 249.275,167.900 243.500 C 167.837 237.725,167.786 242.450,167.786 254.000 M227.786 254.000 C 227.786 265.550,227.837 270.275,227.900 264.500 C 227.962 258.725,227.962 249.275,227.900 243.500 C 227.837 237.725,227.786 242.450,227.786 254.000 M109.900 249.497 C 111.495 249.573,114.105 249.573,115.700 249.497 C 117.295 249.421,115.990 249.359,112.800 249.359 C 109.610 249.359,108.305 249.421,109.900 249.497 M118.294 254.558 L 118.489 255.577 112.744 255.706 L 107.000 255.835 112.795 255.818 C 118.745 255.800,119.957 255.397,118.487 253.927 C 118.237 253.677,118.168 253.900,118.294 254.558 M291.765 267.800 C 291.766 271.760,291.826 273.326,291.898 271.280 C 291.971 269.234,291.971 265.994,291.898 264.080 C 291.824 262.166,291.765 263.840,291.765 267.800 M304.564 267.800 C 304.563 271.540,304.623 273.124,304.697 271.320 C 304.771 269.515,304.772 266.455,304.698 264.520 C 304.625 262.584,304.564 264.060,304.564 267.800 M112.724 264.299 C 115.873 264.367,120.913 264.367,123.924 264.299 C 126.936 264.231,124.360 264.176,118.200 264.176 C 112.040 264.176,109.576 264.232,112.724 264.299 M178.100 264.298 C 180.245 264.370,183.755 264.370,185.900 264.298 C 188.045 264.226,186.290 264.167,182.000 264.167 C 177.710 264.167,175.955 264.226,178.100 264.298 M238.100 264.298 C 240.245 264.370,243.755 264.370,245.900 264.298 C 248.045 264.226,246.290 264.167,242.000 264.167 C 237.710 264.167,235.955 264.226,238.100 264.298 M112.724 272.699 C 115.873 272.767,120.913 272.767,123.924 272.699 C 126.936 272.631,124.360 272.576,118.200 272.576 C 112.040 272.576,109.576 272.632,112.724 272.699 M178.500 272.698 C 180.645 272.770,184.155 272.770,186.300 272.698 C 188.445 272.626,186.690 272.567,182.400 272.567 C 178.110 272.567,176.355 272.626,178.500 272.698 M238.100 272.698 C 240.245 272.770,243.755 272.770,245.900 272.698 C 248.045 272.626,246.290 272.567,242.000 272.567 C 237.710 272.567,235.955 272.626,238.100 272.698 " stroke="none" fill="#ad8e87" fill-rule="evenodd"></path><path id="path5" d="M152.300 126.695 C 153.455 126.776,155.345 126.776,156.500 126.695 C 157.655 126.614,156.710 126.548,154.400 126.548 C 152.090 126.548,151.145 126.614,152.300 126.695 M179.600 135.400 C 180.346 136.170,181.047 136.800,181.157 136.800 C 181.267 136.800,180.746 136.170,180.000 135.400 C 179.254 134.630,178.553 134.000,178.443 134.000 C 178.333 134.000,178.854 134.630,179.600 135.400 M172.033 135.330 C 172.125 135.401,172.830 135.866,173.600 136.363 L 175.000 137.266 173.800 136.235 C 173.140 135.668,172.435 135.203,172.233 135.202 C 172.032 135.201,171.942 135.258,172.033 135.330 M185.044 152.200 C 185.373 153.671,185.602 153.990,185.594 152.967 C 185.591 152.545,185.405 151.930,185.182 151.600 C 184.885 151.162,184.848 151.324,185.044 152.200 M172.352 155.687 C 172.537 156.798,172.593 156.855,172.719 156.054 C 172.801 155.533,172.703 154.943,172.501 154.741 C 172.279 154.519,172.221 154.893,172.352 155.687 M186.514 161.000 C 186.517 162.100,186.595 162.503,186.687 161.895 C 186.779 161.286,186.777 160.386,186.682 159.895 C 186.587 159.403,186.511 159.900,186.514 161.000 M244.000 167.400 C 244.746 168.170,245.447 168.800,245.557 168.800 C 245.667 168.800,245.146 168.170,244.400 167.400 C 243.654 166.630,242.953 166.000,242.843 166.000 C 242.733 166.000,243.254 166.630,244.000 167.400 M176.583 203.400 C 176.583 212.860,176.636 216.673,176.700 211.873 C 176.764 207.073,176.763 199.333,176.699 194.673 C 176.636 190.013,176.583 193.940,176.583 203.400 M216.176 208.800 C 216.176 215.070,216.232 217.635,216.299 214.500 C 216.367 211.365,216.367 206.235,216.299 203.100 C 216.232 199.965,216.176 202.530,216.176 208.800 M149.693 199.496 L 158.387 199.615 158.504 209.908 L 158.621 220.200 158.611 209.800 L 158.600 199.400 149.800 199.389 L 141.000 199.377 149.693 199.496 M195.000 204.779 C 194.389 205.025,194.569 205.104,195.759 205.111 C 196.815 205.117,197.137 205.006,196.759 204.766 C 196.107 204.353,196.054 204.354,195.000 204.779 M239.365 213.600 C 239.365 217.450,239.425 219.025,239.498 217.100 C 239.571 215.175,239.571 212.025,239.498 210.100 C 239.425 208.175,239.365 209.750,239.365 213.600 M91.795 250.600 L 91.800 275.000 93.000 275.000 L 94.200 275.000 94.205 250.700 L 94.209 226.400 94.102 250.600 L 93.994 274.800 93.000 274.800 L 92.006 274.800 91.898 250.500 L 91.791 226.200 91.795 250.600 M98.497 250.675 L 98.400 274.749 97.100 274.911 L 95.800 275.072 97.113 275.136 C 98.920 275.224,98.819 276.796,98.701 250.400 L 98.594 226.600 98.497 250.675 M106.854 229.500 C 106.901 230.434,106.935 230.465,107.081 229.706 L 107.254 228.813 118.327 228.700 L 129.400 228.587 118.100 228.493 L 106.800 228.400 106.854 229.500 M163.395 253.600 L 163.400 275.000 164.400 275.039 C 165.263 275.072,165.277 275.055,164.503 274.912 L 163.607 274.748 163.498 253.474 L 163.389 232.200 163.395 253.600 M174.400 248.320 L 174.600 264.200 174.705 248.625 C 174.762 240.058,174.672 232.912,174.505 232.744 C 174.337 232.577,174.290 239.586,174.400 248.320 M319.700 233.700 C 319.270 234.875,319.280 234.926,319.812 234.224 C 320.321 233.552,320.621 232.400,320.288 232.400 C 320.226 232.400,319.961 232.985,319.700 233.700 M106.934 233.600 L 107.000 234.600 118.300 234.706 L 129.600 234.812 129.600 235.800 L 129.600 236.788 118.300 236.894 L 107.000 237.000 107.000 241.000 L 107.000 245.000 112.863 245.200 C 116.087 245.310,118.642 245.265,118.539 245.100 C 118.437 244.935,115.843 244.800,112.776 244.800 L 107.200 244.800 107.200 241.006 L 107.200 237.212 118.500 237.106 L 129.800 237.000 129.800 235.800 L 129.800 234.600 118.527 234.494 L 107.254 234.388 107.061 233.494 C 106.894 232.717,106.878 232.731,106.934 233.600 M170.096 253.673 L 170.000 274.747 168.900 274.913 L 167.800 275.080 168.913 275.140 C 170.483 275.225,170.419 276.238,170.300 253.400 L 170.193 232.600 170.096 253.673 M230.096 253.673 L 230.000 274.747 228.900 274.913 L 227.800 275.080 228.913 275.140 C 230.483 275.225,230.419 276.238,230.300 253.400 L 230.193 232.600 230.096 253.673 M287.000 243.200 C 287.341 243.860,287.711 244.400,287.821 244.400 C 287.931 244.400,287.741 243.860,287.400 243.200 C 287.059 242.540,286.689 242.000,286.579 242.000 C 286.469 242.000,286.659 242.540,287.000 243.200 M313.800 246.000 C 313.459 246.660,313.269 247.200,313.379 247.200 C 313.489 247.200,313.859 246.660,314.200 246.000 C 314.541 245.340,314.731 244.800,314.621 244.800 C 314.511 244.800,314.141 245.340,313.800 246.000 M106.854 252.500 L 106.800 253.600 112.500 253.512 L 118.200 253.425 112.726 253.301 C 107.434 253.182,107.247 253.148,107.081 252.289 C 106.936 251.540,106.900 251.574,106.854 252.500 M106.948 260.000 C 106.948 262.310,107.014 263.255,107.095 262.100 C 107.176 260.945,107.176 259.055,107.095 257.900 C 107.014 256.745,106.948 257.690,106.948 260.000 M294.267 259.867 C 294.120 260.013,294.000 263.421,294.000 267.440 C 294.000 274.702,293.994 274.748,293.100 274.912 C 292.317 275.056,292.330 275.072,293.200 275.039 L 294.200 275.000 294.400 267.299 C 294.510 263.064,294.585 259.599,294.567 259.599 C 294.548 259.600,294.413 259.720,294.267 259.867 M300.186 267.700 L 300.200 275.000 301.400 275.000 L 302.600 275.000 302.615 267.800 L 302.629 260.600 302.505 267.700 L 302.382 274.800 301.400 274.800 L 300.418 274.800 300.295 267.600 L 300.172 260.399 300.186 267.700 M306.890 267.545 L 306.800 274.891 305.621 274.718 C 304.973 274.623,304.533 274.692,304.645 274.872 C 304.968 275.395,306.806 275.251,307.022 274.686 C 307.131 274.403,307.166 271.028,307.100 267.186 L 306.980 260.200 306.890 267.545 M295.786 267.900 L 295.800 275.000 297.000 275.037 C 298.113 275.072,298.121 275.063,297.109 274.913 L 296.018 274.751 295.895 267.775 L 295.771 260.799 295.786 267.900 M129.512 265.181 L 129.689 266.387 118.344 266.494 L 107.000 266.600 106.947 267.506 C 106.903 268.248,106.926 268.267,107.074 267.612 C 107.248 266.839,107.625 266.809,118.527 266.706 L 129.800 266.600 129.934 265.654 C 130.007 265.133,129.903 264.543,129.701 264.341 C 129.479 264.119,129.405 264.451,129.512 265.181 M249.912 265.179 L 250.088 266.383 242.144 266.505 L 234.200 266.627 242.200 266.613 L 250.200 266.600 250.334 265.654 C 250.407 265.133,250.303 264.543,250.101 264.341 C 249.879 264.119,249.805 264.450,249.912 265.179 M174.454 267.500 C 174.501 268.430,174.536 268.462,174.681 267.709 C 174.851 266.829,174.952 266.816,182.527 266.699 L 190.200 266.582 182.300 266.491 L 174.400 266.400 174.454 267.500 M129.693 269.600 C 129.693 270.370,129.775 270.685,129.876 270.300 C 129.976 269.915,129.976 269.285,129.876 268.900 C 129.775 268.515,129.693 268.830,129.693 269.600 M250.093 269.600 C 250.093 270.370,250.175 270.685,250.276 270.300 C 250.376 269.915,250.376 269.285,250.276 268.900 C 250.175 268.515,250.093 268.830,250.093 269.600 M129.512 273.582 L 129.689 274.788 117.244 274.903 L 104.800 275.017 117.300 275.009 L 129.800 275.000 129.934 274.054 C 130.007 273.533,129.903 272.943,129.701 272.741 C 129.479 272.519,129.405 272.851,129.512 273.582 M249.914 273.592 L 250.089 274.785 240.944 274.904 L 231.800 275.024 241.000 275.012 L 250.200 275.000 250.325 273.700 C 250.394 272.985,250.290 272.400,250.095 272.400 C 249.899 272.400,249.817 272.937,249.914 273.592 M190.046 273.692 L 190.000 274.785 180.900 274.900 L 171.800 275.016 180.913 275.108 C 190.584 275.206,190.759 275.172,190.280 273.323 C 190.157 272.847,190.077 272.973,190.046 273.692 M159.700 275.076 C 160.085 275.176,160.715 275.176,161.100 275.076 C 161.485 274.975,161.170 274.893,160.400 274.893 C 159.630 274.893,159.315 274.975,159.700 275.076 " stroke="none" fill="#bc9c94" fill-rule="evenodd"></path><path id="path6" d="M227.507 174.290 C 228.226 174.379,229.306 174.377,229.907 174.286 C 230.508 174.195,229.920 174.122,228.600 174.124 C 227.280 174.126,226.788 174.201,227.507 174.290 M216.962 177.700 C 216.206 178.593,216.206 178.595,217.000 177.936 C 217.440 177.572,218.250 177.191,218.800 177.091 L 219.800 176.909 218.762 176.854 C 218.129 176.821,217.427 177.151,216.962 177.700 M209.714 182.200 C 209.717 183.300,209.795 183.703,209.887 183.095 C 209.979 182.486,209.977 181.586,209.882 181.095 C 209.787 180.603,209.711 181.100,209.714 182.200 M237.714 182.200 C 237.717 183.300,237.795 183.703,237.887 183.095 C 237.979 182.486,237.977 181.586,237.882 181.095 C 237.787 180.603,237.711 181.100,237.714 182.200 M250.984 202.000 C 250.984 212.010,251.036 216.105,251.100 211.100 C 251.163 206.095,251.163 197.905,251.100 192.900 C 251.036 187.895,250.984 191.990,250.984 202.000 M197.200 205.200 L 195.000 205.470 197.300 205.535 C 198.610 205.572,199.600 205.428,199.600 205.200 C 199.600 204.980,199.555 204.829,199.500 204.865 C 199.445 204.901,198.410 205.052,197.200 205.200 M203.700 205.076 C 204.085 205.176,204.715 205.176,205.100 205.076 C 205.485 204.975,205.170 204.893,204.400 204.893 C 203.630 204.893,203.315 204.975,203.700 205.076 M227.764 213.400 C 227.763 217.140,227.823 218.724,227.897 216.920 C 227.971 215.115,227.972 212.055,227.898 210.120 C 227.825 208.184,227.764 209.660,227.764 213.400 " stroke="none" fill="#9a877f" fill-rule="evenodd"></path><path id="path7" d="M225.722 84.699 C 228.099 84.770,231.879 84.769,234.122 84.698 C 236.365 84.627,234.420 84.569,229.800 84.569 C 225.180 84.570,223.345 84.628,225.722 84.699 M218.500 85.076 C 218.885 85.176,219.515 85.176,219.900 85.076 C 220.285 84.975,219.970 84.893,219.200 84.893 C 218.430 84.893,218.115 84.975,218.500 85.076 M238.900 85.076 C 239.285 85.176,239.915 85.176,240.300 85.076 C 240.685 84.975,240.370 84.893,239.600 84.893 C 238.830 84.893,238.515 84.975,238.900 85.076 M196.175 93.700 L 195.000 95.000 196.300 93.825 C 197.512 92.730,197.784 92.400,197.475 92.400 C 197.406 92.400,196.821 92.985,196.175 93.700 M263.600 95.325 C 263.600 95.394,264.185 95.979,264.900 96.625 L 266.200 97.800 265.025 96.500 C 263.930 95.288,263.600 95.016,263.600 95.325 M225.067 100.667 C 224.920 100.813,224.800 111.523,224.800 124.467 L 224.800 148.000 226.300 147.936 C 227.777 147.873,227.780 147.869,226.500 147.711 L 225.200 147.549 225.200 124.194 L 225.200 100.838 227.700 100.696 L 230.200 100.554 227.767 100.477 C 226.428 100.435,225.213 100.520,225.067 100.667 M237.200 101.257 C 238.190 101.477,240.170 101.901,241.600 102.199 C 243.030 102.497,244.560 102.857,245.000 103.000 C 245.679 103.221,245.700 103.196,245.143 102.834 C 244.341 102.315,240.122 101.351,237.400 101.066 L 235.400 100.857 237.200 101.257 M248.543 104.939 C 250.709 106.479,252.434 108.668,253.416 111.123 C 253.792 112.064,254.170 112.763,254.255 112.678 C 254.502 112.431,253.247 109.654,252.116 107.945 C 251.167 106.510,247.724 103.600,246.976 103.600 C 246.802 103.600,247.507 104.203,248.543 104.939 M208.241 110.251 C 208.373 110.939,208.272 111.929,208.018 112.451 C 207.579 113.353,207.587 113.361,208.178 112.624 C 208.884 111.742,208.974 110.484,208.394 109.600 C 208.112 109.170,208.069 109.354,208.241 110.251 M275.462 117.400 C 275.596 118.280,275.772 119.075,275.853 119.167 C 276.156 119.510,275.929 117.368,275.581 116.600 C 275.329 116.042,275.293 116.285,275.462 117.400 M255.347 122.600 C 255.357 125.958,255.452 127.092,255.615 125.800 C 255.754 124.700,255.747 122.360,255.599 120.600 C 255.360 117.762,255.332 117.988,255.347 122.600 M143.600 127.618 C 143.162 127.915,143.324 127.952,144.200 127.756 C 145.671 127.427,145.990 127.198,144.967 127.206 C 144.545 127.209,143.930 127.395,143.600 127.618 M253.166 132.900 C 252.699 133.835,252.572 134.330,252.884 134.000 C 253.491 133.359,254.505 131.200,254.200 131.200 C 254.099 131.200,253.634 131.965,253.166 132.900 M181.183 136.500 C 182.164 137.545,183.019 138.400,183.083 138.400 C 183.384 138.400,183.066 138.041,181.300 136.383 L 179.400 134.600 181.183 136.500 M248.797 138.507 C 247.365 139.878,245.655 141.413,244.997 141.918 C 244.339 142.422,244.610 142.303,245.600 141.652 C 247.176 140.616,252.084 135.988,251.586 136.007 C 251.484 136.011,250.229 137.136,248.797 138.507 M133.578 139.900 L 132.200 141.400 133.700 140.022 C 134.525 139.263,135.200 138.588,135.200 138.522 C 135.200 138.216,134.862 138.504,133.578 139.900 M240.900 144.012 C 240.405 144.211,240.000 144.470,240.000 144.587 C 240.000 144.975,240.637 144.808,241.424 144.213 C 242.308 143.543,242.185 143.496,240.900 144.012 M233.800 146.461 C 232.920 146.670,231.210 146.990,230.000 147.172 C 228.156 147.449,228.038 147.510,229.275 147.551 C 230.637 147.596,235.979 146.554,236.365 146.168 C 236.616 145.917,235.599 146.033,233.800 146.461 M183.078 147.795 C 183.444 148.562,183.814 149.119,183.901 149.032 C 184.084 148.849,182.870 146.400,182.596 146.400 C 182.495 146.400,182.712 147.028,183.078 147.795 M153.000 149.607 C 152.120 149.769,153.200 149.809,155.400 149.696 C 157.600 149.582,159.475 149.425,159.567 149.345 C 159.856 149.093,154.671 149.300,153.000 149.607 M144.999 152.455 C 144.213 153.145,143.382 154.090,143.152 154.555 C 142.923 155.020,143.203 154.828,143.774 154.128 C 144.346 153.429,145.305 152.490,145.907 152.041 C 146.508 151.592,146.871 151.220,146.714 151.213 C 146.557 151.206,145.785 151.765,144.999 152.455 M185.881 158.600 C 186.122 162.258,186.336 162.816,186.340 159.800 C 186.342 158.480,186.198 157.040,186.020 156.600 C 185.832 156.135,185.774 156.973,185.881 158.600 M141.714 161.400 C 141.717 162.500,141.795 162.903,141.887 162.295 C 141.979 161.686,141.977 160.786,141.882 160.295 C 141.787 159.803,141.711 160.300,141.714 161.400 M123.301 165.800 C 123.305 166.680,123.387 166.993,123.483 166.495 C 123.579 165.998,123.575 165.278,123.475 164.895 C 123.375 164.513,123.296 164.920,123.301 165.800 M143.600 168.400 C 144.049 169.280,144.506 170.000,144.616 170.000 C 144.726 170.000,144.449 169.280,144.000 168.400 C 143.551 167.520,143.094 166.800,142.984 166.800 C 142.874 166.800,143.151 167.520,143.600 168.400 M186.514 170.600 C 186.517 171.700,186.595 172.103,186.687 171.495 C 186.779 170.886,186.777 169.986,186.682 169.495 C 186.587 169.003,186.511 169.500,186.514 170.600 M145.781 171.584 C 146.502 172.750,147.803 174.080,149.000 174.877 C 150.070 175.590,150.053 175.549,148.839 174.499 C 148.091 173.851,147.011 172.792,146.439 172.145 C 145.868 171.498,145.571 171.246,145.781 171.584 M150.800 176.197 C 150.800 176.468,154.049 178.084,154.230 177.903 C 154.314 177.819,153.576 177.359,152.591 176.881 C 151.606 176.402,150.800 176.094,150.800 176.197 M140.661 199.100 C 140.559 199.265,143.203 199.354,146.537 199.297 C 157.585 199.109,158.711 198.962,149.724 198.880 C 144.842 198.836,140.763 198.935,140.661 199.100 M190.000 202.800 C 190.770 203.222,191.580 203.566,191.800 203.566 C 192.020 203.566,191.570 203.222,190.800 202.800 C 190.030 202.378,189.220 202.034,189.000 202.034 C 188.780 202.034,189.230 202.378,190.000 202.800 M191.146 220.106 C 191.314 220.274,196.930 220.364,203.626 220.306 L 215.800 220.199 203.320 220.000 C 196.455 219.890,190.977 219.938,191.146 220.106 M127.278 220.298 C 129.631 220.369,133.591 220.369,136.078 220.299 C 138.565 220.229,136.640 220.171,131.800 220.170 C 126.960 220.170,124.925 220.228,127.278 220.298 M163.100 220.299 C 165.575 220.369,169.625 220.369,172.100 220.299 C 174.575 220.228,172.550 220.171,167.600 220.171 C 162.650 220.171,160.625 220.228,163.100 220.299 M230.482 220.296 C 231.958 220.373,234.478 220.373,236.082 220.297 C 237.687 220.221,236.480 220.158,233.400 220.158 C 230.320 220.157,229.007 220.219,230.482 220.296 M257.500 220.299 C 261.075 220.366,266.925 220.366,270.500 220.299 C 274.075 220.233,271.150 220.179,264.000 220.179 C 256.850 220.179,253.925 220.233,257.500 220.299 M93.788 250.600 C 93.788 264.020,93.838 269.452,93.900 262.671 C 93.961 255.890,93.961 244.910,93.900 238.271 C 93.838 231.632,93.788 237.180,93.788 250.600 M96.188 250.600 C 96.188 264.020,96.238 269.452,96.300 262.671 C 96.361 255.890,96.361 244.910,96.300 238.271 C 96.238 231.632,96.188 237.180,96.188 250.600 M129.232 227.094 L 129.200 227.987 118.100 228.100 L 107.000 228.213 118.113 228.307 C 129.723 228.404,130.126 228.348,129.469 226.713 C 129.356 226.431,129.249 226.602,129.232 227.094 M98.188 250.800 C 98.188 264.110,98.238 269.555,98.300 262.900 C 98.361 256.245,98.361 245.355,98.300 238.700 C 98.238 232.045,98.188 237.490,98.188 250.800 M117.873 230.696 C 128.771 230.809,129.152 230.839,129.326 231.612 C 129.474 232.267,129.497 232.248,129.453 231.506 L 129.400 230.600 118.000 230.590 L 106.600 230.581 117.873 230.696 M159.394 232.872 C 159.283 233.162,159.240 242.760,159.300 254.200 L 159.407 275.000 159.504 253.900 C 159.598 233.130,159.612 232.800,160.396 232.800 C 161.180 232.800,161.195 233.134,161.302 253.900 L 161.411 275.000 161.405 253.800 L 161.400 232.600 160.498 232.472 C 160.002 232.402,159.505 232.582,159.394 232.872 M163.783 232.900 C 163.678 233.175,163.640 242.760,163.700 254.200 L 163.807 275.000 163.904 253.928 L 164.000 232.856 164.900 232.682 L 165.800 232.509 164.887 232.454 C 164.386 232.425,163.889 232.625,163.783 232.900 M172.194 232.872 C 172.083 233.162,172.040 242.760,172.100 254.200 L 172.207 275.000 172.304 253.900 C 172.398 233.140,172.413 232.800,173.195 232.800 C 173.974 232.800,173.993 233.134,174.102 248.500 L 174.214 264.200 174.207 248.400 L 174.200 232.600 173.298 232.472 C 172.802 232.402,172.305 232.582,172.194 232.872 M219.383 232.900 C 219.278 233.175,219.240 242.760,219.300 254.200 L 219.407 275.000 219.504 253.928 L 219.600 232.856 220.500 232.682 L 221.400 232.509 220.487 232.454 C 219.986 232.425,219.489 232.625,219.383 232.900 M232.194 232.872 C 232.083 233.162,232.040 242.760,232.100 254.200 L 232.207 275.000 232.304 253.900 C 232.398 233.140,232.413 232.800,233.195 232.800 C 233.974 232.800,233.993 233.134,234.102 248.400 L 234.214 264.000 234.207 248.300 L 234.200 232.600 233.298 232.472 C 232.802 232.402,232.305 232.582,232.194 232.872 M277.862 232.700 C 277.760 232.865,278.182 233.000,278.800 233.000 C 279.418 233.000,279.840 232.865,279.738 232.700 C 279.636 232.535,279.214 232.400,278.800 232.400 C 278.386 232.400,277.964 232.535,277.862 232.700 M286.406 233.100 C 286.410 233.532,286.525 233.631,286.706 233.360 C 286.868 233.118,287.270 232.817,287.600 232.692 C 288.001 232.539,287.901 232.453,287.300 232.432 C 286.695 232.410,286.402 232.630,286.406 233.100 M291.400 232.689 C 291.840 232.798,292.470 233.092,292.800 233.343 C 293.322 233.740,293.328 233.709,292.851 233.100 C 292.549 232.715,291.919 232.421,291.451 232.446 C 290.643 232.490,290.640 232.503,291.400 232.689 M308.581 234.437 C 308.229 235.118,308.012 235.745,308.099 235.832 C 308.186 235.919,308.556 235.362,308.922 234.595 C 309.744 232.870,309.459 232.738,308.581 234.437 M303.078 237.005 C 302.712 237.772,302.495 238.400,302.596 238.400 C 302.870 238.400,304.084 235.951,303.901 235.768 C 303.814 235.681,303.444 236.238,303.078 237.005 M280.600 238.800 C 280.941 239.460,281.311 240.000,281.421 240.000 C 281.531 240.000,281.341 239.460,281.000 238.800 C 280.659 238.140,280.289 237.600,280.179 237.600 C 280.069 237.600,280.259 238.140,280.600 238.800 M298.141 244.210 C 297.948 244.714,297.792 244.731,297.253 244.310 C 296.671 243.856,296.660 243.876,297.149 244.500 C 297.837 245.377,297.879 245.374,298.400 244.400 C 298.635 243.960,298.726 243.600,298.602 243.600 C 298.477 243.600,298.270 243.875,298.141 244.210 M109.900 245.497 C 111.495 245.573,114.105 245.573,115.700 245.497 C 117.295 245.421,115.990 245.359,112.800 245.359 C 109.610 245.359,108.305 245.421,109.900 245.497 M289.000 246.400 C 289.341 247.060,289.711 247.600,289.821 247.600 C 289.931 247.600,289.741 247.060,289.400 246.400 C 289.059 245.740,288.689 245.200,288.579 245.200 C 288.469 245.200,288.659 245.740,289.000 246.400 M109.500 247.497 C 111.095 247.573,113.705 247.573,115.300 247.497 C 116.895 247.421,115.590 247.359,112.400 247.359 C 109.210 247.359,107.905 247.421,109.500 247.497 M297.381 248.837 C 297.029 249.518,296.812 250.145,296.899 250.232 C 296.986 250.319,297.356 249.762,297.722 248.995 C 298.544 247.270,298.259 247.138,297.381 248.837 M109.500 253.897 C 111.095 253.973,113.705 253.973,115.300 253.897 C 116.895 253.821,115.590 253.759,112.400 253.759 C 109.210 253.759,107.905 253.821,109.500 253.897 M298.178 260.113 C 298.069 260.396,298.031 263.861,298.092 267.813 L 298.202 275.000 298.401 267.300 C 298.596 259.746,298.575 259.077,298.178 260.113 M300.567 267.400 C 300.567 271.580,300.626 273.236,300.698 271.079 C 300.771 268.923,300.770 265.503,300.698 263.479 C 300.625 261.456,300.566 263.220,300.567 267.400 M296.166 267.600 C 296.166 271.670,296.225 273.335,296.298 271.300 C 296.371 269.265,296.371 265.935,296.298 263.900 C 296.225 261.865,296.166 263.530,296.166 267.600 M306.565 267.800 C 306.566 271.760,306.626 273.326,306.698 271.280 C 306.771 269.234,306.771 265.994,306.698 264.080 C 306.624 262.166,306.565 263.840,306.565 267.800 M129.200 265.194 C 129.200 265.963,128.866 265.991,118.100 266.100 L 107.000 266.213 118.300 266.307 L 129.600 266.400 129.600 265.400 C 129.600 264.850,129.510 264.400,129.400 264.400 C 129.290 264.400,129.200 264.757,129.200 265.194 M174.154 266.577 C 174.032 266.894,174.017 267.479,174.120 267.877 C 174.243 268.354,174.323 268.228,174.354 267.508 L 174.400 266.417 182.300 266.300 L 190.200 266.182 182.287 266.091 C 175.706 266.015,174.338 266.097,174.154 266.577 M234.154 266.577 C 233.414 268.504,233.713 268.587,242.105 268.800 C 246.448 268.910,250.001 268.865,250.001 268.700 C 250.000 268.535,246.490 268.400,242.200 268.400 L 234.400 268.400 234.400 267.408 L 234.400 266.417 242.300 266.300 L 250.200 266.182 242.287 266.091 C 235.706 266.015,234.338 266.097,234.154 266.577 M118.100 268.700 C 128.836 268.809,129.200 268.838,129.200 269.600 C 129.200 270.362,128.835 270.391,118.100 270.503 L 107.000 270.619 118.200 270.609 L 129.400 270.600 129.527 269.500 L 129.653 268.400 118.327 268.493 L 107.000 268.587 118.100 268.700 M178.500 268.698 C 180.645 268.770,184.155 268.770,186.300 268.698 C 188.445 268.626,186.690 268.567,182.400 268.567 C 178.110 268.567,176.355 268.626,178.500 268.698 M242.000 270.387 C 234.245 270.599,234.200 270.605,234.147 271.506 C 234.103 272.260,234.124 272.277,234.275 271.606 C 234.448 270.833,234.763 270.800,242.004 270.800 C 246.605 270.800,249.649 270.644,249.800 270.400 C 249.936 270.180,249.992 270.039,249.924 270.087 C 249.856 270.135,246.290 270.270,242.000 270.387 M174.267 270.667 C 173.877 271.056,173.941 272.800,174.345 272.800 C 174.534 272.800,174.604 272.354,174.500 271.809 L 174.310 270.817 182.255 270.700 L 190.200 270.582 182.367 270.491 C 178.058 270.441,174.413 270.520,174.267 270.667 " stroke="none" fill="#a47c7c" fill-rule="evenodd"></path><path id="path8" d="M223.905 162.683 C 224.402 162.779,225.122 162.775,225.505 162.675 C 225.887 162.575,225.480 162.496,224.600 162.501 C 223.720 162.505,223.407 162.587,223.905 162.683 M233.233 162.543 C 233.325 162.622,234.120 162.797,235.000 162.932 C 236.090 163.099,236.409 163.055,236.000 162.795 C 235.453 162.446,232.845 162.209,233.233 162.543 M226.179 174.110 C 226.072 174.390,226.036 178.485,226.100 183.210 L 226.217 191.800 226.308 182.925 L 226.400 174.051 227.700 173.889 L 229.000 173.728 227.687 173.664 C 226.941 173.628,226.291 173.820,226.179 174.110 M210.144 181.200 C 210.144 183.290,210.212 184.145,210.294 183.100 C 210.376 182.055,210.376 180.345,210.294 179.300 C 210.212 178.255,210.144 179.110,210.144 181.200 M221.000 179.200 C 221.000 180.038,221.135 180.640,221.300 180.538 C 221.465 180.436,221.600 179.834,221.600 179.200 C 221.600 178.566,221.465 177.964,221.300 177.862 C 221.135 177.760,221.000 178.362,221.000 179.200 M238.124 182.200 C 238.126 183.520,238.201 184.012,238.290 183.293 C 238.379 182.574,238.377 181.494,238.286 180.893 C 238.195 180.292,238.122 180.880,238.124 182.200 M250.496 202.089 L 250.400 219.977 244.900 220.101 L 239.400 220.225 244.913 220.312 C 249.020 220.378,250.474 220.273,250.617 219.900 C 250.722 219.625,250.760 211.480,250.700 201.800 L 250.591 184.200 250.496 202.089 M212.981 200.100 L 211.400 201.800 213.100 200.219 C 214.681 198.748,214.984 198.400,214.681 198.400 C 214.616 198.400,213.851 199.165,212.981 200.100 M208.400 203.200 C 207.630 203.622,207.144 203.974,207.320 203.983 C 207.744 204.005,210.000 202.832,210.000 202.590 C 210.000 202.328,209.977 202.337,208.400 203.200 M227.338 207.017 C 227.208 207.357,227.213 207.747,227.351 207.884 C 227.488 208.021,227.600 207.838,227.600 207.477 C 227.600 206.903,228.361 206.806,233.700 206.699 L 239.800 206.578 233.687 206.489 C 228.492 206.413,227.539 206.493,227.338 207.017 M227.357 214.400 C 227.357 217.370,227.420 218.585,227.497 217.100 C 227.574 215.615,227.574 213.185,227.497 211.700 C 227.420 210.215,227.357 211.430,227.357 214.400 M216.399 220.100 C 216.400 220.265,218.875 220.368,221.900 220.328 C 227.479 220.255,226.817 220.100,220.099 219.907 C 218.064 219.848,216.399 219.935,216.399 220.100 " stroke="none" fill="#dcd4d4" fill-rule="evenodd"></path></g></svg>